<svg xmlns="http://www.w3.org/2000/svg" data-name="Layer 1" width="708" height="555.86743" viewBox="0 0 708 555.86743">
    <path id="b10fb2cf-c586-4c5f-9fbf-e678f5ffa3db" data-name="Path 133" 
          d="M890.46523,679.51478a211.72219,211.72219,0,0,1-46.19649,37.27045c-.39154.24069-.7897.4667-1.18925.70031l-27.639-24.46263c.29035-.26957.61188-.57235.95806-.90494C836.99246,672.563,939.22932,535.83823,946.042,502.54351,945.57186,505.31735,952.18923,614.09419,890.46523,679.51478Z" 
          transform="translate(-246 -172.06628)" fill="#f0f0f0"/>
    <path id="a32c10c7-75df-4179-a648-6a8d2a687209" data-name="Path 134" 
          d="M849.6017,721.5053c-.52265.12466-1.0544.24137-1.58764.34772l-20.7355-18.35251c.40524-.14119.87883-.30927,1.42046-.49568,8.89662-3.15026,35.39436-12.66026,61.76413-23.49189,28.33447-11.64369,56.53311-24.79986,62.59765-33.227C951.75986,648.244,911.68646,707.62224,849.6017,721.5053Z" 
          transform="translate(-246 -172.06628)" fill="#f0f0f0"/>
    <path d="M890.08181,317.64639h-2.95289V236.75278a46.819,46.819,0,0,0-46.819-46.81906H668.92579a46.819,46.819,0,0,0-46.81911,46.81891v443.7888a46.819,46.819,0,0,0,46.819,46.81906H840.30972a46.819,46.819,0,0,0,46.81915-46.81888V375.22785h2.95294Z" 
          transform="translate(-246 -172.06628)" fill="#3f3d56"/>
    <path d="M877.1627,237.07439V680.21716a34.95659,34.95659,0,0,1-34.9693,34.95674H669.98426a34.95435,34.95435,0,0,1-34.957-34.95674V237.07439a34.95435,34.95435,0,0,1,34.957-34.95674h20.89839a16.61888,16.61888,0,0,0,15.38341,22.87963h98.18146a16.60126,16.60126,0,0,0,15.384-22.87963H842.1934A34.95659,34.95659,0,0,1,877.1627,237.07439Z" 
          transform="translate(-246 -172.06628)" fill="#fff"/>
    <path d="M823.59459,467.3551H672.22789a10.0113,10.0113,0,0,1-10-10v-4.97754a10.0113,10.0113,0,0,1,10-10h151.3667a10.0113,10.0113,0,0,1,10,10v4.97754A10.0113,10.0113,0,0,1,823.59459,467.3551Z" 
          transform="translate(-246 -172.06628)" fill="#f0f0f0"/>
    <path d="M823.59459,510.26233H672.22789a10.0113,10.0113,0,0,1-10-10v-4.97754a10.0113,10.0113,0,0,1,10-10h151.3667a10.0113,10.0113,0,0,1,10,10v4.97754A10.0113,10.0113,0,0,1,823.59459,510.26233Z" 
          transform="translate(-246 -172.06628)" fill="#f0f0f0"/>
    <path d="M831.16637,457.75891H679.79967a10.512,10.512,0,0,1-10.5-10.5v-4.97754a10.512,10.512,0,0,1,10.5-10.5h151.3667a10.512,10.512,0,0,1,10.5,10.5v4.97754A10.512,10.512,0,0,1,831.16637,457.75891Zm-151.3667-23.97754a8.50951,8.50951,0,0,0-8.5,8.5v4.97754a8.50951,8.50951,0,0,0,8.5,8.5h151.3667a8.50951,8.50951,0,0,0,8.5-8.5v-4.97754a8.50951,8.50951,0,0,0-8.5-8.5Z" 
          transform="translate(-246 -172.06628)" fill="#3f3d56"/>
    <path d="M831.16637,500.66614H679.79967a10.512,10.512,0,0,1-10.5-10.5V485.1886a10.512,10.512,0,0,1,10.5-10.5h151.3667a10.512,10.512,0,0,1,10.5,10.5v4.97754A10.512,10.512,0,0,1,831.16637,500.66614ZM679.79967,476.6886a8.50951,8.50951,0,0,0-8.5,8.5v4.97754a8.50951,8.50951,0,0,0,8.5,8.5h151.3667a8.50951,8.50951,0,0,0,8.5-8.5V485.1886a8.50951,8.50951,0,0,0-8.5-8.5Z" 
          transform="translate(-246 -172.06628)" fill="#3f3d56"/>
    <path d="M877.1627,237.07439V333.4641A103.53895,103.53895,0,0,1,747.28027,233.38945q0-4.24023.34076-8.39217h56.82649a16.60126,16.60126,0,0,0,15.384-22.87963H842.1934A34.95659,34.95659,0,0,1,877.1627,237.07439Z" 
          transform="translate(-246 -172.06628)" fill="#f0f0f0"/>
    <path d="M722.04076,709.15425c0,2.03176-.0758,4.03834-.23971,6.01965H669.98426a34.95435,34.95435,0,0,1-34.957-34.95674v-47.3998a77.07339,77.07339,0,0,1,87.01347,76.33689Z" 
          transform="translate(-246 -172.06628)" fill="#6c63ff"/>
    <path d="M304.12133,625.985a6.00681,6.00681,0,0,0,7.911-3.0669l46.67932-105.79394a13.3793,13.3793,0,0,0-4.1776-15.30377l-105.53744-62.70345a6.00682,6.00682,0,1,0-6.29425,10.11819l105.53744,62.70345A13.3793,13.3793,0,0,0,304.12133,625.985Z" 
          transform="translate(-246 -172.06628)" fill="#6c63ff"/>
    <path d="M460.942,691.3844a6.00681,6.00681,0,0,0,7.911-3.0669l46.67932-105.79394a13.3793,13.3793,0,0,0-4.1776-15.30377l-105.53744-62.70345a6.00682,6.00682,0,1,0-6.29425,10.11819l105.53744,62.70345A13.3793,13.3793,0,0,0,460.942,691.3844Z" 
          transform="translate(-246 -172.06628)" fill="#6c63ff"/>
</svg>