<svg xmlns="http://www.w3.org/2000/svg" data-name="Layer 1" width="744.848" height="747.077" viewBox="0 0 744.848 747.077">
    <path id="fa3b9e12" d="M299.205,705.809l-6.56-25.872a335.967,335.967,0,0,0-35.643-12.788l-.828,12.024-3.358-13.247c-15.022-4.294-25.24-6.183-25.24-6.183s13.8,52.489,42.754,92.617l33.734,5.926-26.207,3.779a135.926,135.926,0,0,0,11.719,12.422c42.115,39.092,89.024,57.028,104.773,40.06s-5.625-62.412-47.74-101.5c-13.056-12.119-29.457-21.844-45.875-29.5Z" fill="#f2f2f2"/>
    <path id="bde08021" d="M361.591,677.706l7.758-25.538a335.94,335.94,0,0,0-23.9-29.371l-6.924,9.865,3.972-13.076c-10.641-11.436-18.412-18.335-18.412-18.335s-15.315,52.067-11.275,101.384l25.815,22.51-24.392-10.312a135.919,135.919,0,0,0,3.614,16.694c15.846,55.234,46.731,94.835,68.983,88.451s27.446-56.335,11.6-111.569c-4.912-17.123-13.926-33.926-24.023-48.965Z" fill="#f2f2f2"/>
    <path id="b3ac2088" d="M747.327,253.445h-4.092v-112.1a64.883,64.883,0,0,0-64.883-64.883H440.845a64.883,64.883,0,0,0-64.883,64.883v615a64.883,64.883,0,0,0,64.883,64.883H678.352a64.883,64.883,0,0,0,64.882-64.883v-423.105h4.092Z" fill="#e6e6e6"/>
    <path id="b2715b96" d="M680.97,93.336h-31a23.02,23.02,0,0,1-21.316,31.714H492.589a23.02,23.02,0,0,1-21.314-31.714H442.319a48.454,48.454,0,0,0-48.454,48.454v614.107a48.454,48.454,0,0,0,48.454,48.454H680.97a48.454,48.454,0,0,0,48.454-48.454V141.788A48.454,48.454,0,0,0,680.97,93.336Z" fill="#fff"/>
    <path id="b06d66ec" d="M531.234,337.965a24.437,24.437,0,0,1,12.23-21.174,24.45,24.45,0,1,0,0,42.345A24.434,24.434,0,0,1,531.234,337.965Z" fill="#ccc"/>
    <path id="e73810fe" d="M561.971,337.965a24.436,24.436,0,0,1,12.23-21.174,24.45,24.45,0,1,0,0,42.345A24.434,24.434,0,0,1,561.971,337.965Z" fill="#ccc"/>
    <circle id="a4813fcf" cx="364.434" cy="261.502" r="24.45" fill="#6c63ff"/>
    <path id="bbe451c3" d="M632.872,414.331h-142.5a5.123,5.123,0,0,1-5.117-5.117v-142.5a5.123,5.123,0,0,1,5.117-5.117h142.5a5.123,5.123,0,0,1,5.117,5.117v142.5A5.123,5.123,0,0,1,632.872,414.331Zm-142.5-150.686a3.073,3.073,0,0,0-3.07,3.07v142.5a3.073,3.073,0,0,0,3.07,3.07h142.5a3.073,3.073,0,0,0,3.07-3.07v-142.5a3.073,3.073,0,0,0-3.07-3.07Z" fill="#ccc"/>
    <rect id="bb28937d" x="218.562" y="447.102" width="218.552" height="2.047" fill="#ccc"/>
    <circle id="fcef55fc" cx="225.464" cy="427.42" r="6.902" fill="#6c63ff"/>
    <rect id="ff33d889" x="218.562" y="516.118" width="218.552" height="2.047" fill="#ccc"/>
    <circle id="e8fa0310" cx="225.464" cy="496.437" r="6.902" fill="#6c63ff"/>
    <path d="M660.69,671.172H591.622a4.505,4.505,0,0,1-4.5-4.5v-24.208a4.505,4.505,0,0,1,4.5-4.5h69.068a4.505,4.505,0,0,1,4.5,4.5v24.208A4.505,4.505,0,0,1,660.69,671.172Z" fill="#6c63ff"/>
    <circle id="e12ee00d" cx="247.978" cy="427.42" r="6.902" fill="#6c63ff"/>
    <circle id="f58f497e" cx="270.492" cy="427.42" r="6.902" fill="#6c63ff"/>
    <circle id="b4d4939a" cx="247.978" cy="496.437" r="6.902" fill="#6c63ff"/>
    <circle id="aff120b1" cx="270.492" cy="496.437" r="6.902" fill="#6c63ff"/>
    <path id="f1094013" d="M969.642,823.539H251.656c-1.537,0-2.782-.546-2.782-1.218s1.245-1.219,2.782-1.219H969.642c1.536,0,2.782.546,2.782,1.219S971.178,823.539,969.642,823.539Z" fill="#3f3d56"/>
    <path d="M792.253,565.923a10.094,10.094,0,0,1,1.411.787l44.852-19.143,1.601-11.815,17.922-.11-1.058,27.098-59.2,15.655a10.608,10.608,0,0,1-.447,1.208,10.235,10.235,0,1,1-5.079-13.682Z" fill="#ffb8b8"/>
    <polygon points="636.98 735.021 624.72 735.021 618.888 687.733 636.982 687.734 636.98 735.021" fill="#ffb8b8"/>
    <path d="M615.963,731.518h23.644a0,0,0,0,1,0,0v14.887a0,0,0,0,1,0,0H615.963a0,0,0,0,1,0,0V731.518Z" fill="#3f3d56"/>
</svg>